<?xml version="1.0" encoding="utf-8"?>
<!-- Generator: Adobe Illustrator 26.0.1, SVG Export Plug-In . SVG Version: 6.00 Build 0)  -->
<svg version="1.1" id="Layer_1" xmlns="http://www.w3.org/2000/svg" xmlns:xlink="http://www.w3.org/1999/xlink" x="0px" y="0px"
	 viewBox="0 0 50.5 33.9" style="enable-background:new 0 0 50.5 33.9;" xml:space="preserve">
<style type="text/css">
	.st0{fill:none;stroke:#B1B3B6;stroke-miterlimit:10;}
	.st1{fill:#FFFFFF;stroke:#B1B3B6;stroke-miterlimit:10;}
	.st2{fill:#B1B3B6;}
	.st3{fill:#096BAB;}
	.st4{fill:#C2258F;}
	.st5{fill:#3FB65A;}
	.st6{fill:#FFFFFF;stroke:#282829;stroke-miterlimit:10;}
	.st7{fill:#F6F6F6;stroke:#B1B3B6;stroke-miterlimit:10;}
	.st8{fill-rule:evenodd;clip-rule:evenodd;fill:#0F8442;}
	.st9{fill-rule:evenodd;clip-rule:evenodd;fill:#FFFFFF;}
	.st10{enable-background:new    ;}
	.st11{fill:#FFFFFF;}
	.st12{fill:#F6F6F6;}
	.st13{fill:#B1B3B6;stroke:#FFFFFF;stroke-miterlimit:10;}
	.st14{fill:none;stroke:#282829;stroke-width:2;stroke-miterlimit:10;}
	.st15{fill:#282829;}
	.st16{fill:#FDB81A;}
</style>
<g>
	<g>
		<path class="st15" d="M45.2,32.5h-40c-2.3,0-4.1-1.8-4.1-4.1v-23c0-2.3,1.8-4.1,4.1-4.1h40c2.3,0,4.1,1.8,4.1,4.1v23
			C49.4,30.7,47.5,32.5,45.2,32.5z M5.3,3.3c-1.2,0-2.1,0.9-2.1,2.1v23c0,1.2,0.9,2.1,2.1,2.1h40c1.2,0,2.1-0.9,2.1-2.1v-23
			c0-1.2-0.9-2.1-2.1-2.1H5.3z"/>
	</g>
	<g>
		<rect x="2.2" y="8.1" class="st15" width="46.2" height="4.6"/>
	</g>
	<g>
		<g>
			<rect x="6.5" y="25.8" class="st2" width="12.2" height="1.4"/>
		</g>
		<g>
			<path class="st16" d="M43,27.4h-4.6c-0.6,0-1-0.4-1-1v-3c0-0.6,0.4-1,1-1H43c0.5,0,1,0.4,1,1v3C44,27,43.6,27.4,43,27.4z"/>
		</g>
	</g>
</g>
</svg>
