<?xml version="1.0" encoding="utf-8"?>
<!-- Generator: Adobe Illustrator 26.0.1, SVG Export Plug-In . SVG Version: 6.00 Build 0)  -->
<svg version="1.1" id="Layer_1" xmlns="http://www.w3.org/2000/svg" xmlns:xlink="http://www.w3.org/1999/xlink" x="0px" y="0px"
	 viewBox="0 0 126.2 32.5" style="enable-background:new 0 0 126.2 32.5;" xml:space="preserve">
<style type="text/css">
	.st0{fill:none;stroke:#B1B3B6;stroke-miterlimit:10;}
	.st1{fill:#FFFFFF;stroke:#B1B3B6;stroke-miterlimit:10;}
	.st2{fill:#B1B3B6;}
	.st3{fill:#096BAB;}
	.st4{fill:#C2258F;}
	.st5{fill:#3FB65A;}
	.st6{fill:#FFFFFF;stroke:#282829;stroke-miterlimit:10;}
	.st7{fill:#F6F6F6;stroke:#B1B3B6;stroke-miterlimit:10;}
	.st8{fill-rule:evenodd;clip-rule:evenodd;fill:#0F8442;}
	.st9{fill-rule:evenodd;clip-rule:evenodd;fill:#FFFFFF;}
	.st10{enable-background:new    ;}
	.st11{fill:#FFFFFF;}
	.st12{fill:#F6F6F6;}
	.st13{fill:#B1B3B6;stroke:#FFFFFF;stroke-miterlimit:10;}
	.st14{fill:none;stroke:#282829;stroke-width:2;stroke-miterlimit:10;}
	.st15{fill:#282829;}
	.st16{fill:#FDB81A;}
	.st17{fill:#253D80;}
	.st18{fill:#189BD7;}
	.st19{fill:#242E65;}
</style>
<g>
	<path class="st17" d="M47.5,7.9h-6.8c-0.5,0-0.9,0.3-0.9,0.8L37,26.3c-0.1,0.3,0.2,0.7,0.6,0.7h3.3c0.5,0,0.9-0.3,0.9-0.8l0.7-4.7
		c0.1-0.5,0.5-0.8,0.9-0.8h2.2c4.5,0,7.1-2.2,7.8-6.5c0.3-1.9,0-3.4-0.9-4.4C51.6,8.5,49.8,7.9,47.5,7.9z M48.3,14.3
		c-0.4,2.5-2.2,2.5-4.1,2.5h-1l0.7-4.6c0-0.3,0.3-0.5,0.6-0.5H45c1.2,0,2.4,0,3,0.7C48.4,12.8,48.5,13.5,48.3,14.3z"/>
	<path class="st17" d="M68,14.2h-3.3c-0.3,0-0.5,0.2-0.6,0.5L64,15.6l-0.2-0.3c-0.7-1-2.3-1.4-3.9-1.4c-3.6,0-6.7,2.7-7.3,6.6
		c-0.3,1.9,0.1,3.8,1.2,5c1,1.2,2.4,1.7,4.1,1.7c2.9,0,4.5-1.9,4.5-1.9l-0.1,0.9c-0.1,0.3,0.2,0.7,0.6,0.7h2.9
		c0.5,0,0.9-0.3,0.9-0.8l1.8-11.2C68.6,14.6,68.3,14.2,68,14.2z M63.4,20.6c-0.3,1.9-1.8,3.1-3.7,3.1c-1,0-1.7-0.3-2.2-0.9
		c-0.5-0.6-0.7-1.4-0.5-2.3c0.3-1.9,1.8-3.2,3.7-3.2c0.9,0,1.7,0.3,2.2,0.9C63.4,18.9,63.6,19.7,63.4,20.6z"/>
	<path class="st17" d="M85.4,14.2h-3.3c-0.3,0-0.6,0.2-0.8,0.4l-4.5,6.7l-1.9-6.4c-0.1-0.4-0.5-0.7-0.9-0.7h-3.2
		c-0.4,0-0.7,0.4-0.5,0.8l3.6,10.6l-3.4,4.8c-0.3,0.4,0,0.9,0.5,0.9h3.3c0.3,0,0.6-0.2,0.8-0.4l10.9-15.8
		C86.2,14.8,85.9,14.2,85.4,14.2z"/>
	<path class="st18" d="M96.3,7.9h-6.8c-0.5,0-0.9,0.3-0.9,0.8l-2.8,17.5c-0.1,0.3,0.2,0.7,0.6,0.7h3.5c0.3,0,0.6-0.2,0.7-0.6l0.8-5
		c0.1-0.5,0.5-0.8,0.9-0.8h2.2c4.5,0,7.1-2.2,7.8-6.5c0.3-1.9,0-3.4-0.9-4.4C100.3,8.5,98.6,7.9,96.3,7.9z M97.1,14.3
		c-0.4,2.5-2.2,2.5-4.1,2.5h-1l0.7-4.6c0-0.3,0.3-0.5,0.6-0.5h0.5c1.2,0,2.4,0,3,0.7C97.1,12.8,97.2,13.5,97.1,14.3z"/>
	<path class="st18" d="M116.8,14.2h-3.3c-0.3,0-0.5,0.2-0.6,0.5l-0.1,0.9l-0.2-0.3c-0.7-1-2.3-1.4-3.9-1.4c-3.6,0-6.7,2.7-7.3,6.6
		c-0.3,1.9,0.1,3.8,1.2,5c1,1.2,2.4,1.7,4.1,1.7c2.9,0,4.5-1.9,4.5-1.9l-0.1,0.9c-0.1,0.3,0.2,0.7,0.6,0.7h2.9
		c0.5,0,0.9-0.3,0.9-0.8l1.8-11.2C117.4,14.6,117.1,14.2,116.8,14.2z M112.2,20.6c-0.3,1.9-1.8,3.1-3.7,3.1c-0.9,0-1.7-0.3-2.2-0.9
		c-0.5-0.6-0.7-1.4-0.5-2.3c0.3-1.9,1.8-3.2,3.7-3.2c0.9,0,1.7,0.3,2.2,0.9C112.1,18.9,112.3,19.7,112.2,20.6z"/>
	<path class="st18" d="M120.6,8.4l-2.8,17.9c-0.1,0.3,0.2,0.7,0.6,0.7h2.8c0.5,0,0.9-0.3,0.9-0.8l2.8-17.5c0.1-0.3-0.2-0.7-0.6-0.7
		h-3.2C120.9,7.9,120.7,8.1,120.6,8.4z"/>
	<path class="st17" d="M8.6,30.3L9.1,27L8,27H2.4L6.3,2.5c0-0.1,0.1-0.1,0.1-0.2c0.1,0,0.1-0.1,0.2-0.1H16c3.1,0,5.3,0.6,6.4,1.9
		c0.5,0.6,0.9,1.2,1,1.9c0.2,0.7,0.2,1.6,0,2.6l0,0.1v0.7l0.5,0.3c0.4,0.2,0.8,0.5,1.1,0.8c0.5,0.5,0.7,1.2,0.9,1.9
		c0.1,0.8,0.1,1.7-0.1,2.8c-0.2,1.2-0.6,2.3-1.2,3.2c-0.5,0.8-1.1,1.5-1.8,2c-0.7,0.5-1.5,0.9-2.5,1.1c-0.9,0.2-1.9,0.4-3.1,0.4
		h-0.7c-0.5,0-1,0.2-1.4,0.5c-0.4,0.3-0.7,0.8-0.7,1.3l-0.1,0.3l-0.9,5.9l0,0.2c0,0.1,0,0.1-0.1,0.1c0,0-0.1,0-0.1,0
		C13.1,30.3,8.6,30.3,8.6,30.3z"/>
	<path class="st18" d="M24.4,8.8L24.4,8.8L24.4,8.8c0,0.2-0.1,0.4-0.1,0.6c-1.2,6.4-5.5,8.5-10.9,8.5h-2.8c-0.7,0-1.2,0.5-1.3,1.1
		l0,0l0,0L7.9,28l-0.4,2.5c-0.1,0.4,0.3,0.8,0.7,0.8h4.9c0.6,0,1.1-0.4,1.2-1l0-0.2l0.9-5.8l0.1-0.3c0.1-0.6,0.6-1,1.2-1h0.7
		c4.7,0,8.4-1.9,9.5-7.5c0.5-2.3,0.2-4.3-1-5.6C25.4,9.5,24.9,9.1,24.4,8.8z"/>
	<path class="st19" d="M23.1,8.3c-0.2-0.1-0.4-0.1-0.6-0.1c-0.2,0-0.4-0.1-0.6-0.1c-0.7-0.1-1.6-0.2-2.4-0.2h-7.4
		c-0.2,0-0.4,0-0.5,0.1c-0.3,0.2-0.6,0.5-0.7,0.9l-1.6,9.9l0,0.3c0.1-0.7,0.7-1.1,1.3-1.1h2.8c5.4,0,9.6-2.2,10.9-8.5
		c0-0.2,0.1-0.4,0.1-0.6c-0.3-0.2-0.7-0.3-1-0.4C23.3,8.4,23.2,8.3,23.1,8.3z"/>
	<path class="st17" d="M10.9,8.9C11,8.5,11.3,8.2,11.6,8c0.2-0.1,0.3-0.1,0.5-0.1h7.4c0.9,0,1.7,0.1,2.4,0.2c0.2,0,0.4,0.1,0.6,0.1
		c0.2,0,0.4,0.1,0.6,0.1c0.1,0,0.2,0.1,0.3,0.1c0.4,0.1,0.7,0.3,1,0.4c0.4-2.3,0-3.9-1.3-5.4c-1.4-1.6-3.9-2.3-7.2-2.3H6.6
		c-0.7,0-1.2,0.5-1.3,1.1L1.3,27.1C1.3,27.6,1.6,28,2.1,28h5.8l1.5-9.2L10.9,8.9z"/>
</g>
</svg>
