<?xml version="1.0" encoding="utf-8"?>
<!-- Generator: Adobe Illustrator 22.0.1, SVG Export Plug-In . SVG Version: 6.00 Build 0)  -->
<svg version="1.1" id="Layer_1" xmlns="http://www.w3.org/2000/svg" xmlns:xlink="http://www.w3.org/1999/xlink" x="0px" y="0px"
	 viewBox="0 0 1366 768" style="enable-background:new 0 0 1366 768;" xml:space="preserve">
<style type="text/css">
	.st0{fill:#1C100B;}
	.st1{font-family:'AlfaSlabOne-Regular';}
	.st2{font-size:45.0353px;}
	.st3{fill:#D25400;}
	.st4{font-family:'BebasNeueBold';}
	.st5{font-size:23.9391px;}
	.st6{letter-spacing:2;}
</style>
<g>
	<g>
		<path class="st0" d="M561.4,402.2L561.4,402.2L561.4,402.2h9.7h201.7h3.6l0,0c4.4,0,8-3.6,8-8c0-4.4-3.6-8-8-8h-1.2
			c-6.7-44.8-41-80.6-85.1-89.5c0.7-2.8,1-5.4,1-7.5c0-12.3-10-22.3-22.3-22.3s-22.3,10-22.3,22.3c0,2.2,0.4,4.8,1,7.5
			c-44.1,8.8-78.4,44.6-85.1,89.5h-1.2c-4.4,0-8,3.6-8,8C553.4,398.6,557,402.2,561.4,402.2z M662.5,289.3c0-3.5,2.9-6.4,6.4-6.4
			c3.5,0,6.4,2.9,6.4,6.4c0,1.7-0.4,3.6-1.1,5.5c-1.8-0.1-3.5-0.1-5.3-0.1c-1.8,0-3.5,0-5.3,0.1C663,292.9,662.5,291,662.5,289.3z"
			/>
		<path class="st0" d="M776.4,453.2h-215c-4.4,0-8,3.6-8,8c0,4.4,3.6,8,8,8h215c4.4,0,8-3.6,8-8
			C784.4,456.7,780.8,453.2,776.4,453.2z"/>
	</g>
	<text transform="matrix(1 0 0 1 552.2031 444.9883)" class="st0 st1 st2">FOODOPS</text>
	<polygon class="st3" points="660.9,348 665.5,361.5 679.7,361.7 668.3,370.2 672.5,383.8 660.9,375.6 649.3,383.8 653.4,370.2 
		642.1,361.7 656.3,361.5 	"/>
	<polygon class="st3" points="633.5,363.1 636.1,370.8 644.3,370.9 637.8,375.8 640.2,383.6 633.5,378.9 626.8,383.6 629.2,375.8 
		622.7,370.9 630.9,370.8 	"/>
	<polygon class="st3" points="686.4,363.1 689,370.8 697.2,370.9 690.7,375.8 693.1,383.6 686.4,378.9 679.7,383.6 682.1,375.8 
		675.6,370.9 683.8,370.8 	"/>
	<text transform="matrix(1 0 0 1 611.7778 495.7988)" class="st0 st4 st5 st6">RESTAURANT</text>
</g>
</svg>
